<?xml version="1.0" encoding="utf-8"?>
<!-- Generator: Adobe Illustrator 22.0.0, SVG Export Plug-In . SVG Version: 6.00 Build 0)  -->
<svg version="1.1" xmlns="http://www.w3.org/2000/svg" xmlns:xlink="http://www.w3.org/1999/xlink" x="0px" y="0px"
	 viewBox="0 0 512 512" style="enable-background:new 0 0 512 512;" xml:space="preserve">
<style type="text/css">
	.st0{display:none;}
	.st1{display:inline;fill:#1426A8;stroke:#000000;stroke-miterlimit:10;}
	.st2{fill:#FFFFFF;}
</style>
<g id="Layer_2" class="st0">
	<rect class="st1" width="512" height="512"/>
</g>
<g id="Layer_3">
</g>
<g id="Layer_1">
	<g>
		<path class="st2" d="M288.8,219.3c-1.7-0.6-3.4-0.7-5.3-0.7c-0.2,1.5-0.1,72.3,0.1,73.2c1.8,0,3.6-0.1,5.3-0.7
			c1.5-0.5,2.5-1.5,2.8-3c0.2-0.7,0.3-1.5,0.4-2.2c0.5-3.1,0.5-6.3,0.5-9.4c0-15.2,0-30.3,0-45.5c0-2.4-0.1-4.8-0.3-7.2
			C292.1,221.6,291.1,219.9,288.8,219.3z"/>
		<path class="st2" d="M364.3,243.7c0-2.2-0.1-4.4-0.6-6.5c-0.6-2.5-2.6-3.6-5.1-2.9c-1,0.3-1.7,0.9-2,1.9c-0.2,0.7-0.4,1.5-0.4,2.2
			c-0.1,2.4-0.3,4.7-0.3,7.1v39.3c0,1.5,0,2.9,0.1,4.4c0.1,1.6,0.3,3.1,0.6,4.6c0.2,1.1,0.8,1.9,1.9,2.3c2.4,1,4.6-0.1,5.2-2.7
			c0.1-0.3,0.1-0.6,0.1-0.8c0.1-2.1,0.4-4.2,0.4-6.3c0.1-6.9,0.1-13.9,0.1-20.9h0C364.3,258.2,364.3,250.9,364.3,243.7z"/>
		<path class="st2" d="M256,0C114.6,0,0,114.6,0,256s114.6,256,256,256s256-114.6,256-256S397.4,0,256,0z M148.7,310.8
			c-9.6,0-19.2,0-28.8,0c0-37.1,0-74.1,0-111.3h28.8V310.8z M246,310.7c-8.1,0.1-16.4,0.1-25,0.1h0c0-24.5,0-49,0-73.4
			c-0.1,0-0.2,0-0.2,0c-3.3,24.4-6.6,48.9-9.9,73.4c-6,0-12,0-18.1,0c-3.5-24.1-6.9-48.2-10.4-72.2c-0.1,0-0.1,0-0.2,0v72.2
			c-8.5,0-16.8,0-25.2,0c-0.2-0.7-0.3-109.3-0.1-111.2c0.8-0.2,34.7-0.3,37.4-0.1c0.2,1,0.4,2,0.5,3.1c1,6.7,1.9,13.4,2.8,20.1
			c0.7,5.1,1.5,10.2,2.2,15.2c0.6,4.3,1.2,8.6,2,12.8c2.2-17.1,4.4-34.2,6.6-51.3H246C246.2,200.2,246.3,309.6,246,310.7z
			 M321.6,280.8c0,4.1-0.3,8.2-0.6,12.3c-0.2,2.6-0.7,5.1-1.8,7.5c-1.8,3.9-4.9,6.4-8.7,8c-2.8,1.1-5.7,1.7-8.7,1.9
			c-3.9,0.2-7.7,0.4-11.6,0.4c-11.5,0.1-22.9,0-34.4,0c-0.3,0-0.7,0-1.3,0v0l0,0h0c0-37.2,0-74.2,0-111.3c0.3,0,0.6-0.1,0.8-0.1
			c10.9,0.1,21.8,0.1,32.7,0.2c5.1,0.1,10.3,0.4,15.3,1.4c4.6,1,8.8,2.7,12.1,6.2c3,3.2,4.9,7,5.4,11.4c0.6,5.2,0.7,10.5,0.8,15.8
			C321.7,249.9,321.7,265.3,321.6,280.8z M392.1,267.5v19.6c0,3.7-0.3,7.3-0.8,10.9c-0.7,5-3.3,8.7-7.4,11.4
			c-4,2.7-8.4,3.6-13.2,3.2c-5.4-0.5-9.8-3-13.5-6.9c-0.3-0.6-0.7-1.1-1.3-1.6h0c-0.6,2.4-1.2,4.6-1.8,6.8c-8.7,0-17.3,0-26,0
			c0-37.1,0-74.2,0-111.3h27.7c0,0.4,0.1,0.8,0.1,1.2v23.6v1.1c0.1,0,0.1,0,0.2,0.1c0.4-0.4,0.7-0.7,1.1-1.1
			c4.2-4.3,9.2-6.4,15.2-6.5c3.7,0,7.2,0.4,10.6,2c4.8,2.1,7.6,5.9,8.6,10.9c0.5,2.5,0.5,5.1,0.5,7.6
			C392.2,248.2,392.1,257.9,392.1,267.5z"/>
	</g>
</g>
</svg>
